<svg width="29" height="29" viewBox="0 0 29 29" fill="none" xmlns="http://www.w3.org/2000/svg">
<path fill-rule="evenodd" clip-rule="evenodd" d="M4.37276 14.2333C4.48619 14.4293 4.63655 14.6791 4.82283 14.9675C5.30127 15.7083 6.0098 16.6935 6.92967 17.6747C8.78833 19.6573 11.3869 21.4978 14.6046 21.4978C17.8223 21.4978 20.4209 19.6573 22.2796 17.6747C23.1994 16.6935 23.908 15.7083 24.3864 14.9675C24.5727 14.6791 24.723 14.4293 24.8365 14.2333C24.723 14.0373 24.5727 13.7875 24.3864 13.4991C23.908 12.7583 23.1994 11.7731 22.2796 10.7919C20.4209 8.80935 17.8223 6.96877 14.6046 6.96877C11.3869 6.96877 8.78833 8.80935 6.92967 10.7919C6.0098 11.7731 5.30127 12.7583 4.82283 13.4991C4.63655 13.7875 4.48619 14.0373 4.37276 14.2333ZM26.0203 14.2333C26.9485 13.7692 26.9484 13.7688 26.9482 13.7685L26.9465 13.7651L26.9429 13.758L26.9311 13.735C26.9212 13.7157 26.9073 13.6888 26.8892 13.6547C26.8531 13.5864 26.8007 13.4894 26.7323 13.3678C26.5955 13.1246 26.3941 12.782 26.13 12.373C25.6031 11.5572 24.8198 10.4667 23.7938 9.37235C21.7607 7.20377 18.6515 4.89319 14.6046 4.89319C10.5577 4.89319 7.44851 7.20377 5.41546 9.37235C4.38947 10.4667 3.60617 11.5572 3.07926 12.373C2.81515 12.782 2.61376 13.1246 2.47696 13.3678C2.40852 13.4894 2.35613 13.5864 2.32003 13.6547C2.30197 13.6888 2.28798 13.7157 2.27808 13.735L2.26631 13.758L2.26273 13.7651L2.26151 13.7675C2.26132 13.7679 2.26069 13.7692 3.18891 14.2333L2.26069 13.7692C2.1146 14.0614 2.1146 14.4053 2.26069 14.6974L3.18891 14.2333C2.26069 14.6974 2.26049 14.697 2.26069 14.6974L2.26273 14.7015L2.26631 14.7086L2.27808 14.7316C2.28798 14.7509 2.30197 14.7778 2.32003 14.8119C2.35613 14.8802 2.40852 14.9772 2.47696 15.0988C2.61376 15.342 2.81515 15.6846 3.07926 16.0936C3.60617 16.9094 4.38947 17.9999 5.41546 19.0943C7.44851 21.2628 10.5577 23.5734 14.6046 23.5734C18.6515 23.5734 21.7607 21.2628 23.7938 19.0943C24.8198 17.9999 25.6031 16.9094 26.13 16.0936C26.3941 15.6846 26.5955 15.342 26.7323 15.0988C26.8007 14.9772 26.8531 14.8802 26.8892 14.8119C26.9073 14.7778 26.9212 14.7509 26.9311 14.7316L26.9429 14.7086L26.9465 14.7015L26.9477 14.6991C26.9479 14.6987 26.9485 14.6974 26.0203 14.2333ZM26.0203 14.2333L26.9485 14.6974C27.0946 14.4053 27.0943 14.0606 26.9482 13.7685L26.0203 14.2333Z" fill="#465669"/>
<path d="M10.4539 14.2334C10.4539 11.9408 12.3124 10.0823 14.605 10.0823C16.8976 10.0823 18.7562 11.9408 18.7562 14.2334C18.7562 16.5261 16.8976 18.3846 14.605 18.3846C12.3124 18.3846 10.4539 16.5261 10.4539 14.2334Z" fill="#465669"/>
</svg>
