<svg width="29" height="29" viewBox="0 0 29 29" fill="none" xmlns="http://www.w3.org/2000/svg">
<path fill-rule="evenodd" clip-rule="evenodd" d="M4.37301 14.2337C4.48643 14.4297 4.6368 14.6795 4.82307 14.9679C5.30151 15.7087 6.01005 16.6939 6.92991 17.675C8.78858 19.6576 11.3872 21.4982 14.6049 21.4982C17.8225 21.4982 20.4211 19.6576 22.2798 17.675C23.1997 16.6939 23.9082 15.7087 24.3866 14.9679C24.5729 14.6795 24.7233 14.4297 24.8367 14.2337C24.7233 14.0377 24.5729 13.7879 24.3866 13.4995C23.9082 12.7586 23.1997 11.7735 22.2798 10.7923C20.4211 8.80972 17.8225 6.96914 14.6049 6.96914C11.3872 6.96914 8.78858 8.80972 6.92991 10.7923C6.01005 11.7735 5.30151 12.7586 4.82307 13.4995C4.6368 13.7879 4.48643 14.0377 4.37301 14.2337ZM26.0206 14.2337C26.9488 13.7696 26.9486 13.7692 26.9484 13.7688L26.9467 13.7655L26.9432 13.7584L26.9314 13.7353C26.9215 13.7161 26.9075 13.6892 26.8894 13.655C26.8533 13.5868 26.8009 13.4898 26.7325 13.3681C26.5957 13.1249 26.3943 12.7823 26.1302 12.3734C25.6033 11.5575 24.82 10.4671 23.794 9.37272C21.761 7.20413 18.6517 4.89355 14.6049 4.89355C10.558 4.89355 7.44875 7.20413 5.4157 9.37272C4.38971 10.4671 3.60642 11.5575 3.0795 12.3734C2.8154 12.7823 2.61401 13.1249 2.4772 13.3681C2.40876 13.4898 2.35637 13.5868 2.32027 13.655C2.30222 13.6892 2.28823 13.7161 2.27833 13.7353L2.26655 13.7584L2.26297 13.7655L2.26176 13.7679C2.26157 13.7683 2.26093 13.7696 3.18916 14.2337L2.26093 13.7696C2.11485 14.0617 2.11485 14.4056 2.26093 14.6978L3.18916 14.2337C2.26093 14.6978 2.26074 14.6974 2.26093 14.6978L2.26297 14.7019L2.26655 14.7089L2.27833 14.732C2.28823 14.7512 2.30222 14.7782 2.32027 14.8123C2.35637 14.8805 2.40876 14.9775 2.4772 15.0992C2.61401 15.3424 2.8154 15.685 3.0795 16.0939C3.60642 16.9098 4.38971 18.0002 5.4157 19.0946C7.44875 21.2632 10.558 23.5738 14.6049 23.5738C18.6517 23.5738 21.761 21.2632 23.794 19.0946C24.82 18.0002 25.6033 16.9098 26.1302 16.0939C26.3943 15.685 26.5957 15.3424 26.7325 15.0992C26.8009 14.9775 26.8533 14.8805 26.8894 14.8123C26.9075 14.7782 26.9215 14.7512 26.9314 14.732L26.9432 14.7089L26.9467 14.7019L26.948 14.6994C26.9481 14.6991 26.9488 14.6978 26.0206 14.2337ZM26.0206 14.2337L26.9488 14.6978C27.0949 14.4056 27.0945 14.061 26.9484 13.7688L26.0206 14.2337Z" fill="#465669"/>
<path d="M10.4541 14.2342C10.4541 11.9415 12.3126 10.083 14.6053 10.083C16.8979 10.083 18.7564 11.9415 18.7564 14.2342C18.7564 16.5268 16.8979 18.3853 14.6053 18.3853C12.3126 18.3853 10.4541 16.5268 10.4541 14.2342Z" fill="#465669"/>
<path d="M2.5 2L27 25.5" stroke="#465669" stroke-width="2" stroke-linecap="round"/>
</svg>
